<svg xmlns="http://www.w3.org/2000/svg" width="1440" height="346" fill="none" viewBox="0 0 1440 346"><mask id="mask0_31_85" style="mask-type:alpha" width="1884" height="346" x="-182" y="0" maskUnits="userSpaceOnUse"><rect width="1884" height="346" x="-182" fill="#fff"/></mask><g mask="url(#mask0_31_85)"><path fill="#0F1120" stroke="#2765C2" stroke-width="2" d="M1119.44 -140.01L1119.44 -140.009C1208.35 -102.424 1338.59 -69.3773 1471.62 -47.0173C1412.96 65.2319 1308.33 161.762 1171.76 229.488C1034.7 297.458 872.157 333.1 706.233 331.549C540.308 329.999 379.083 291.331 244.473 220.824C110.384 150.589 9.21839 52.1747 -45.4608 -61.0886C108.954 -72.0781 299.701 -95.5397 418.226 -145.022C447.963 -157.436 473.202 -171.508 492.193 -187.466C511.185 -203.425 523.976 -221.314 528.709 -241.359C538.117 -281.204 515.586 -328.928 448.644 -386.116C533.784 -406.682 602.933 -408.201 662.519 -397.318C722.548 -386.353 772.928 -362.79 820.225 -333.341C853.538 -312.598 885.283 -288.963 917.801 -264.752C931.482 -254.566 945.299 -244.279 959.428 -234.061C1007.11 -199.58 1058.27 -165.961 1119.44 -140.01Z"/></g></svg>