<?xml version="1.0" encoding="UTF-8" standalone="no"?>
<svg
   width="1631.5127"
   height="426.98972"
   viewBox="0 0 1631.5127 426.98972"
   fill="none"
   version="1.1"
   id="svg2"
   xmlns="http://www.w3.org/2000/svg"
   xmlns:svg="http://www.w3.org/2000/svg">
  <path
     d="m 235.913,41.906022 c -42.83364,-74.190035 -170.075373,0 -235.913,0 V 426.98972 H 1631 V 60.690622 c -35.42,-21.1501 -84.4965,-14.038801 -136.89,0 -52.3935,14.038801 -150.52,-7.0965 -193.39,-32.6991 -42.87,-25.6026991 -131.6537,-9.17318 -171.25,0 -95.584,22.143746 -286.45876,55.585107 -287.757,0 -1.29824,-55.585107 -200.13437,-12.231815 -297.713,13.9143 -98.0336,26.268025 -263.9124,76.512848 -308.087,2e-4 z"
     fill="url(#paint0_linear_111_2)"
     stroke="#5714e7"
     stroke-width="2"
     id="path1"
     style="display:inline;fill:url(#paint0_linear_111_2);stroke:none" />
  <defs
     id="defs2">
    <linearGradient
       id="paint0_linear_111_2"
       x1="800.5"
       y1="-3.34957"
       x2="800.5"
       y2="423"
       gradientUnits="userSpaceOnUse"
       gradientTransform="translate(15,3.9897228)">
      <stop
         stop-color="#233075"
         stop-opacity="0.5"
         id="stop1" />
      <stop
         offset="1"
         stop-color="#0A0B14"
         id="stop2" />
    </linearGradient>
  </defs>
  <path
     d="m 1631,60.690622 c -35.42,-21.1501 -84.4965,-14.038801 -136.89,0 -52.3935,14.038801 -150.52,-7.0965 -193.39,-32.6991 -42.87,-25.6026991 -131.6537,-9.17318 -171.25,0 -95.584,22.143746 -286.45876,55.585107 -287.757,0 -1.29824,-55.585107 -200.13437,-12.231815 -297.713,13.9143 -98.0336,26.268025 -263.9124,76.512848 -308.087,2e-4 -42.83364,-74.190035 -170.075373,0 -235.913,0"
     fill="url(#paint0_linear_111_2)"
     stroke="#5714e7"
     stroke-width="2"
     id="path2"
     style="fill:none" />
</svg>
