<svg width="1516" height="222" viewBox="0 0 1516 220" fill="none" xmlns="http://www.w3.org/2000/svg">
<path d="M1165.62 169.73L1165.87 168.825L1165.62 169.731C1254.4 193.714 1382.65 203.212 1515.5 220.134H1227H762.5H298H1C155.339 213.102 345.793 198.108 464.158 166.527C493.876 158.598 519.099 149.611 538.082 139.417C557.033 129.24 569.936 117.768 574.734 104.781C579.57 91.6909 576.073 77.3667 562.966 61.7987C550.212 46.6514 528.266 30.1934 495.635 12.2797C666.001 -13.8664 772.407 8.76344 866.445 46.1838C899.763 59.4422 931.514 74.5502 964.034 90.0242C977.714 96.5334 991.53 103.107 1005.66 109.636C1053.34 131.673 1104.48 153.152 1165.62 169.73Z" fill="#0F1120"/>
<path d="M1515.5 220.134C1382.65 203.212 1254.4 193.714 1165.62 169.731L1165.87 168.825L1165.62 169.73C1104.48 153.152 1053.34 131.673 1005.66 109.636C991.53 103.107 977.714 96.5334 964.034 90.0242C931.514 74.5502 899.763 59.4422 866.445 46.1838C772.407 8.76344 666.001 -13.8664 495.635 12.2797C528.266 30.1934 550.212 46.6514 562.966 61.7987C576.073 77.3667 579.57 91.6909 574.734 104.781C569.936 117.768 557.033 129.24 538.082 139.417C519.099 149.611 493.876 158.598 464.158 166.527C345.793 198.108 155.339 213.102 1 220.134L1 222L1515.5 222L1515.5 220.134Z" stroke="#2765C2" stroke-width="2"/>
</svg>
