<?xml version="1.0" encoding="UTF-8" standalone="no"?>
<svg
   width="1440"
   height="230"
   viewBox="0 0 1440 230"
   fill="none"
   version="1.1"
   id="svg2"
   xmlns="http://www.w3.org/2000/svg"
   xmlns:svg="http://www.w3.org/2000/svg">
  <defs
     id="defs2" />
  <mask
     id="mask0_31_74"
     maskUnits="userSpaceOnUse"
     x="-224"
     y="0"
     width="1967"
     height="242">
    <rect
       x="-224"
       width="1967"
       height="241.446"
       fill="#ffffff"
       id="rect1"
       y="0" />
  </mask>
  <g
     mask="url(#mask0_31_74)"
     id="g1">
    <path
       d="m 1119.01,169.73 0.25,-0.905 -0.25,0.906 c 88.78,23.983 218.79,45.078 351.64,59.366 -58.7,71.392 -163.09,132.848 -299.3,176.019 -137.1,43.452 -299.693,66.238 -465.673,65.247 C 539.697,469.371 378.42,444.651 243.772,399.578 110.037,354.81 9.1223,292.158 -45.6128,220.134 108.726,213.102 299.18,198.108 417.545,166.527 c 29.718,-7.929 54.941,-16.916 73.924,-27.11 18.951,-10.177 31.854,-21.649 36.652,-34.636 4.836,-13.0902 1.339,-27.4144 -11.768,-42.9824 -12.754,-15.1473 -34.7,-31.6053 -67.331,-49.519 170.366,-26.1461 276.772,-3.51621 370.81,33.9041 33.318,13.2584 65.069,28.3664 97.589,43.8404 13.68,6.5092 27.496,13.0829 41.622,19.6119 47.687,22.037 98.827,43.516 159.967,60.094 z"
       fill="#0f1120"
       stroke="#2765c2"
       stroke-width="2"
       id="path1" />
  </g>
</svg>
