<svg xmlns="http://www.w3.org/2000/svg" xmlns:xlink="http://www.w3.org/1999/xlink" width="100%" height="100%" version="1.1" viewBox="0 0 224 224" xml:space="preserve" style="fill-rule:evenodd;clip-rule:evenodd;stroke-linejoin:round;stroke-miterlimit:2"><g id="layer1"><g id="surface85753"><path id="path1984" d="M112,0C173.441,-0 224,50.559 224,112C224,173.441 173.441,224 112,224C50.559,224 0,173.441 0,112C-0,50.559 50.559,0 112,0" style="fill:#00078f"/><path id="path1986" d="M206.49,147.8C189.82,143.96 173.49,138.27 162.36,131.8C131.85,114 121.29,75.15 78.26,89.6C112.26,129.25 55.26,141.6 16.62,145.36C30.723,185.841 69.13,213.132 111.998,213.132C153.924,213.132 191.684,187.025 206.49,147.8" style="fill:#fdfdff;fill-rule:nonzero"/><clipPath id="_clip1"><path id="path19861" d="M206.49,147.8C189.82,143.96 173.49,138.27 162.36,131.8C131.85,114 121.29,75.15 78.26,89.6C112.26,129.25 55.26,141.6 16.62,145.36C30.723,185.841 69.13,213.132 111.998,213.132C153.924,213.132 191.684,187.025 206.49,147.8" clip-rule="nonzero"/></clipPath><g clip-path="url(#_clip1)"><g><g transform="matrix(1.29391,0,0,0.862167,-26.2377,49.5681) matrix(1,0,0,1,-143.265,-133.654)"><rect width="150" height="25" x="175" y="175" style="fill:#e40303"/></g><g transform="matrix(1.29391,0,0,0.862167,-26.2377,49.5681) matrix(1,0,0,1,-143.265,-133.654)"><rect width="150" height="25" x="175" y="200" style="fill:#ff8c00"/></g><g transform="matrix(1.29391,0,0,0.862167,-26.2377,49.5681) matrix(1,0,0,1,-143.265,-133.654)"><rect width="150" height="25" x="175" y="225" style="fill:#ffed00"/></g><g transform="matrix(1.29391,0,0,0.862167,-26.2377,49.5681) matrix(1,0,0,1,-143.265,-133.654)"><rect width="150" height="25" x="175" y="250" style="fill:#008026"/></g><g transform="matrix(1.29391,0,0,0.862167,-26.2377,49.5681) matrix(1,0,0,1,-143.265,-133.654)"><rect width="150" height="25" x="175" y="275" style="fill:#24408e"/></g><g transform="matrix(1.29391,0,0,0.862167,-26.2377,49.5681) matrix(1,0,0,1,-143.265,-133.973)"><rect width="150" height="25" x="175" y="300" style="fill:#732982"/></g></g></g></g></g></svg>